# xmcd
#
# Track frame offsets: 
#        150
#        14141
#        28132
#        40617
#        53258
#        67479
#        79419
#        93926
#        108114
#        121450
#        135223
#        144886
#        157019
#        167054
#        176836
#        188768
#        201475
#        212486
#        224100
#        236008
#
# Disc length: 3316 seconds
#
# Revision: 3
# Processed by: cddbd v1.5.2PL0 Copyright (c) Steve Scherf et al.
# Submitted via: ExactAudioCopyFreeDBPlugin 1.0
#
DISCID=240cf214
DTITLE=Kokomo Arnold, Billy Boy Arnold - ABC Of The Blues - CD01 Arnol
DTITLE=d
DYEAR=2010
DGENRE=Blues
TTITLE0=Backfence Picket Blues
TTITLE1=Fool Man Blues
TTITLE2=Long And Tall
TTITLE3=Sally Dog
TTITLE4=Cold Winter Blues
TTITLE5=Sister Jane Cross The Hall
TTITLE6=Wild Water Blues
TTITLE7=Laugh And Grin Blues
TTITLE8=Mean Old Twister
TTITLE9=Red Beans And Rice
TTITLE10=Billy Boy Arnold - My Heart Is Crying
TTITLE11=Billy Boy Arnold - I Wish You Would
TTITLE12=Billy Boy Arnold - I Ain't Got You
TTITLE13=Billy Boy Arnold - Here's My Picture
TTITLE14=Billy Boy Arnold - You Got Me Wrong
TTITLE15=Billy Boy Arnold - Prisoner's Plea
TTITLE16=Billy Boy Arnold - Every Day, Every Night
TTITLE17=Billy Boy Arnold - No, No, No, No, No
TTITLE18=Billy Boy Arnold - Rockinitis
TTITLE19=Billy Boy Arnold - I Was Fooled
EXTD=Membran Music Ltd.  233168
EXTT0=
EXTT1=
EXTT2=
EXTT3=
EXTT4=
EXTT5=
EXTT6=
EXTT7=
EXTT8=
EXTT9=
EXTT10=
EXTT11=
EXTT12=
EXTT13=
EXTT14=
EXTT15=
EXTT16=
EXTT17=
EXTT18=
EXTT19=
PLAYORDER=
